<svg xmlns="http://www.w3.org/2000/svg" viewBox="0 0 864.14 384"><defs><style>.cls-1{fill:#0d6aa8;}.cls-2{fill:none;stroke:#0d6aa8;stroke-miterlimit:10;stroke-width:25px;}</style></defs><title>email-icon_2</title><g id="Layer_2" data-name="Layer 2"><g id="Layer_1-2" data-name="Layer 1"><path class="cls-1" d="M839.8,126.8c4.44-3.1,9.73-.2,8.87,4.7L812.61,336c-4.67,26.5-30,48-56.46,48h-416c-26.5,0-44.21-21.5-39.54-48l36-204.4c.88-5,7.08-7.8,10.53-4.7,19.33,17.4,45.13,39.5,134.07,113.6,18.38,15.4,48.27,47.8,83.8,47.6,35.65.3,77.79-32.8,100.7-47.6C780.81,166.4,814.33,144.2,839.8,126.8ZM570.72,256c23.12.4,61.74-29.2,80.7-41.4C801.1,118.3,812.68,109.9,847.51,85.9A29.63,29.63,0,0,0,860,67l3.35-19c4.67-26.5-13-48-39.54-48h-416c-26.5,0-51.79,21.5-56.46,48L348,67c-1.3,7.4.88,14.3,5.87,18.9,26.38,23.9,35,32.4,150.71,128.7,14.64,12.2,42.82,41.8,66.1,41.4Z"/><line class="cls-2" x1="69" y1="62.5" x2="310" y2="62.5"/><line class="cls-2" x1="35" y1="194.5" x2="276" y2="194.5"/><line class="cls-2" y1="326.5" x2="241" y2="326.5"/></g></g></svg>